<?xml version="1.0" encoding="UTF-8" standalone="no"?>
<!DOCTYPE svg PUBLIC "-//W3C//DTD SVG 1.1//EN"
 "http://www.w3.org/Graphics/SVG/1.1/DTD/svg11.dtd">
<!-- Generated by graphviz version 12.2.1 (0)
 -->
<!-- Title: nixstore Pages: 1 -->
<svg width="1826pt" height="620pt"
 viewBox="0.00 0.00 1826.00 620.00" xmlns="http://www.w3.org/2000/svg" xmlns:xlink="http://www.w3.org/1999/xlink">
<g id="graph0" class="graph" transform="scale(1 1) rotate(0) translate(4 616)">
<title>nixstore</title>
<polygon fill="white" stroke="none" points="-4,4 -4,-616 1822,-616 1822,4 -4,4"/>
<!-- N1 -->
<g id="node1" class="node">
<title>N1</title>
<polygon fill="#4776ee" stroke="#4776ee" points="448.23,-368.54 448.23,-383.46 385.49,-394 296.76,-394 234.02,-383.46 234.02,-368.54 296.76,-358 385.49,-358 448.23,-368.54"/>
<polygon fill="none" stroke="#4776ee" points="452.23,-365.16 452.23,-386.84 385.82,-398 296.43,-398 230.02,-386.84 230.02,-365.16 296.43,-354 385.82,-354 452.23,-365.16"/>
<polygon fill="none" stroke="#4776ee" points="456.23,-361.78 456.23,-390.22 386.16,-402 296.09,-402 226.02,-390.22 226.02,-361.78 296.09,-350 386.16,-350 456.23,-361.78"/>
<text text-anchor="middle" x="341.12" y="-370.95" font-family="Times,serif" font-size="14.00" fill="#000000">{transient} (607.8 MB)</text>
</g>
<!-- N2 -->
<g id="node10" class="node">
<title>N2</title>
<polygon fill="#2abaed" stroke="#2abaed" points="983.62,-324 822.87,-324 822.87,-288 983.62,-288 983.62,-324"/>
<text text-anchor="middle" x="903.25" y="-300.95" font-family="Times,serif" font-size="14.00" fill="#000000">karchive&#45;5.116.0 (1.9 GB)</text>
</g>
<!-- N1&#45;&gt;N2 -->
<g id="edge10" class="edge">
<title>N1&#45;&gt;N2</title>
<path fill="none" stroke="black" d="M456.46,-365.82C522.54,-359.54 607.2,-350.82 682.25,-341 724.75,-335.44 771.68,-328.13 811.24,-321.63"/>
<polygon fill="black" stroke="black" points="811.67,-325.11 820.97,-320.03 810.53,-318.2 811.67,-325.11"/>
</g>
<!-- N13 -->
<g id="node2" class="node">
<title>N13</title>
<polygon fill="#30123b" stroke="#30123b" points="488.11,-228.54 488.11,-243.46 402.01,-254 280.24,-254 194.14,-243.46 194.14,-228.54 280.24,-218 402.01,-218 488.11,-228.54"/>
<polygon fill="none" stroke="#30123b" points="492.11,-225 492.11,-247 402.25,-258 280,-258 190.14,-247 190.14,-225 280,-214 402.25,-214 492.11,-225"/>
<polygon fill="none" stroke="#30123b" points="496.11,-221.46 496.11,-250.54 402.5,-262 279.75,-262 186.14,-250.54 186.14,-221.46 279.75,-210 402.5,-210 496.11,-221.46"/>
<text text-anchor="middle" x="341.12" y="-230.95" font-family="Times,serif" font-size="14.00" fill="#ffffff">/run/current&#45;system, today (19 B)</text>
</g>
<!-- N6 -->
<g id="node14" class="node">
<title>N6</title>
<polygon fill="#448dfd" stroke="#448dfd" points="1088.25,-254 718.25,-254 718.25,-218 1088.25,-218 1088.25,-254"/>
<text text-anchor="middle" x="903.25" y="-230.95" font-family="Times,serif" font-size="14.00" fill="#000000">shared:nixos&#45;system&#45;altair&#45;25.05.20250409.f675531 (942.5 MB)</text>
</g>
<!-- N13&#45;&gt;N6 -->
<g id="edge8" class="edge">
<title>N13&#45;&gt;N6</title>
<path fill="none" stroke="black" d="M496.29,-236C561.25,-236 637.62,-236 706.49,-236"/>
<polygon fill="black" stroke="black" points="706.4,-239.5 716.4,-236 706.4,-232.5 706.4,-239.5"/>
</g>
<!-- N12 -->
<g id="node3" class="node">
<title>N12</title>
<polygon fill="#3c3286" stroke="#3c3286" points="516.92,-158.54 516.92,-173.46 413.94,-184 268.31,-184 165.33,-173.46 165.33,-158.54 268.31,-148 413.94,-148 516.92,-158.54"/>
<polygon fill="none" stroke="#3c3286" points="520.92,-154.93 520.92,-177.07 414.15,-188 268.1,-188 161.33,-177.07 161.33,-154.93 268.1,-144 414.15,-144 520.92,-154.93"/>
<polygon fill="none" stroke="#3c3286" points="524.92,-151.32 524.92,-180.68 414.35,-192 267.9,-192 157.33,-180.68 157.33,-151.32 267.9,-140 414.35,-140 524.92,-151.32"/>
<text text-anchor="middle" x="341.12" y="-160.95" font-family="Times,serif" font-size="14.00" fill="#ffffff">NixOS generation 768, today (58.4 MB)</text>
</g>
<!-- N12&#45;&gt;N6 -->
<g id="edge7" class="edge">
<title>N12&#45;&gt;N6</title>
<path fill="none" stroke="black" d="M516.24,-182.05C569.59,-187.47 628.39,-193.95 682.25,-201 714.84,-205.27 750.03,-210.56 782.51,-215.72"/>
<polygon fill="black" stroke="black" points="781.96,-219.18 792.39,-217.3 783.06,-212.26 781.96,-219.18"/>
</g>
<!-- N11 -->
<g id="node4" class="node">
<title>N11</title>
<polygon fill="#30123b" stroke="#30123b" points="641.57,-508.54 641.57,-523.46 465.57,-534 216.68,-534 40.68,-523.46 40.68,-508.54 216.68,-498 465.57,-498 641.57,-508.54"/>
<polygon fill="none" stroke="#30123b" points="645.57,-504.78 645.57,-527.22 465.69,-538 216.56,-538 36.68,-527.22 36.68,-504.78 216.56,-494 465.69,-494 645.57,-504.78"/>
<polygon fill="none" stroke="#30123b" points="649.57,-501.01 649.57,-530.99 465.81,-542 216.44,-542 32.68,-530.99 32.68,-501.01 216.44,-490 465.81,-490 649.57,-501.01"/>
<text text-anchor="middle" x="341.12" y="-510.95" font-family="Times,serif" font-size="14.00" fill="#ffffff">/home/podman/.local/state/home&#45;manager/gcroots/current&#45;home (59 B)</text>
</g>
<!-- N3 -->
<g id="node11" class="node">
<title>N3</title>
<polygon fill="#4683f8" stroke="#4683f8" points="1818,-464 1612.25,-464 1612.25,-428 1818,-428 1818,-464"/>
<text text-anchor="middle" x="1715.12" y="-440.95" font-family="Times,serif" font-size="14.00" fill="#000000">aws&#45;sdk&#45;cpp&#45;1.11.448 (781.1 MB)</text>
</g>
<!-- N11&#45;&gt;N3 -->
<g id="edge6" class="edge">
<title>N11&#45;&gt;N3</title>
<path fill="none" stroke="black" d="M649.88,-506.81C899.72,-498.2 1261.01,-483.14 1576.25,-460 1584.17,-459.42 1592.34,-458.75 1600.56,-458.04"/>
<polygon fill="black" stroke="black" points="1600.63,-461.55 1610.28,-457.17 1600,-454.57 1600.63,-461.55"/>
</g>
<!-- N10 -->
<g id="node5" class="node">
<title>N10</title>
<polygon fill="#30123b" stroke="#30123b" points="638.24,-438.54 638.24,-453.46 464.19,-464 218.06,-464 44.01,-453.46 44.01,-438.54 218.06,-428 464.19,-428 638.24,-438.54"/>
<polygon fill="none" stroke="#30123b" points="642.24,-434.78 642.24,-457.22 464.32,-468 217.93,-468 40.01,-457.22 40.01,-434.78 217.93,-424 464.32,-424 642.24,-434.78"/>
<polygon fill="none" stroke="#30123b" points="646.24,-431.01 646.24,-460.99 464.44,-472 217.81,-472 36.01,-460.99 36.01,-431.01 217.81,-420 464.44,-420 646.24,-431.01"/>
<text text-anchor="middle" x="341.12" y="-440.95" font-family="Times,serif" font-size="14.00" fill="#ffffff">/home/podman/.local/state/nix/profiles/home&#45;manager&#45;117&#45;link (60 B)</text>
</g>
<!-- N10&#45;&gt;N3 -->
<g id="edge5" class="edge">
<title>N10&#45;&gt;N3</title>
<path fill="none" stroke="black" d="M646.62,-446C948.02,-446 1393.49,-446 1600.58,-446"/>
<polygon fill="black" stroke="black" points="1600.56,-449.5 1610.56,-446 1600.56,-442.5 1600.56,-449.5"/>
</g>
<!-- N9 -->
<g id="node6" class="node">
<title>N9</title>
<polygon fill="#38276d" stroke="#38276d" points="509.16,-298.54 509.16,-313.46 410.73,-324 271.52,-324 173.09,-313.46 173.09,-298.54 271.52,-288 410.73,-288 509.16,-298.54"/>
<polygon fill="none" stroke="#38276d" points="513.16,-294.95 513.16,-317.05 410.94,-328 271.31,-328 169.09,-317.05 169.09,-294.95 271.31,-284 410.94,-284 513.16,-294.95"/>
<polygon fill="none" stroke="#38276d" points="517.16,-291.36 517.16,-320.64 411.16,-332 271.09,-332 165.09,-320.64 165.09,-291.36 271.09,-280 411.16,-280 517.16,-291.36"/>
<text text-anchor="middle" x="341.12" y="-300.95" font-family="Times,serif" font-size="14.00" fill="#ffffff">/run/booted&#45;system, 4d ago (24.3 MB)</text>
</g>
<!-- N9&#45;&gt;N2 -->
<g id="edge4" class="edge">
<title>N9&#45;&gt;N2</title>
<path fill="none" stroke="black" d="M517.43,-306C614.85,-306 732.03,-306 811.29,-306"/>
<polygon fill="black" stroke="black" points="811.19,-309.5 821.19,-306 811.19,-302.5 811.19,-309.5"/>
</g>
<!-- N9&#45;&gt;N6 -->
<g id="edge3" class="edge">
<title>N9&#45;&gt;N6</title>
<path fill="none" stroke="black" d="M512.32,-290.35C566.69,-284.85 627.07,-278.22 682.25,-271 714.84,-266.73 750.03,-261.44 782.51,-256.28"/>
<polygon fill="black" stroke="black" points="783.06,-259.74 792.39,-254.7 781.96,-252.82 783.06,-259.74"/>
</g>
<!-- N8 -->
<g id="node7" class="node">
<title>N8</title>
<polygon fill="#30123b" stroke="#30123b" points="660.4,-18.54 660.4,-33.46 473.37,-44 208.88,-44 21.85,-33.46 21.85,-18.54 208.88,-8 473.37,-8 660.4,-18.54"/>
<polygon fill="none" stroke="#30123b" points="664.4,-14.76 664.4,-37.24 473.49,-48 208.76,-48 17.85,-37.24 17.85,-14.76 208.76,-4 473.49,-4 664.4,-14.76"/>
<polygon fill="none" stroke="#30123b" points="668.4,-10.98 668.4,-41.02 473.6,-52 208.65,-52 13.85,-41.02 13.85,-10.98 208.65,0 473.6,0 668.4,-10.98"/>
<text text-anchor="middle" x="341.12" y="-20.95" font-family="Times,serif" font-size="14.00" fill="#ffffff">/home/milky/.local/state/home&#45;manager/gcroots/current&#45;home, today (58 B)</text>
</g>
<!-- N4 -->
<g id="node12" class="node">
<title>N4</title>
<polygon fill="#23eca9" stroke="#23eca9" points="1576.25,-184 1393.75,-184 1393.75,-148 1576.25,-148 1576.25,-184"/>
<text text-anchor="middle" x="1485" y="-160.95" font-family="Times,serif" font-size="14.00" fill="#000000">gcc&#45;14&#45;20241116&#45;lib (3.7 GB)</text>
</g>
<!-- N8&#45;&gt;N4 -->
<g id="edge2" class="edge">
<title>N8&#45;&gt;N4</title>
<path fill="none" stroke="black" d="M557.63,-47.72C599,-52.02 641.98,-56.57 682.25,-61 982.71,-94.03 1059.33,-91.91 1357.75,-140 1367.65,-141.59 1377.95,-143.43 1388.2,-145.37"/>
<polygon fill="black" stroke="black" points="1387.33,-148.76 1397.81,-147.22 1388.65,-141.89 1387.33,-148.76"/>
</g>
<!-- N7 -->
<g id="node8" class="node">
<title>N7</title>
<polygon fill="#341b51" stroke="#341b51" points="674.25,-88.54 674.25,-103.46 479.11,-114 203.14,-114 8,-103.46 8,-88.54 203.14,-78 479.11,-78 674.25,-88.54"/>
<polygon fill="none" stroke="#341b51" points="678.25,-84.75 678.25,-107.25 479.22,-118 203.03,-118 4,-107.25 4,-84.75 203.03,-74 479.22,-74 678.25,-84.75"/>
<polygon fill="none" stroke="#341b51" points="682.25,-80.96 682.25,-111.04 479.33,-122 202.92,-122 0,-111.04 0,-80.96 202.92,-70 479.33,-70 682.25,-80.96"/>
<text text-anchor="middle" x="341.12" y="-90.95" font-family="Times,serif" font-size="14.00" fill="#ffffff">/home/milky/.local/state/nix/profiles/home&#45;manager&#45;396&#45;link, 1d ago (4.2 MB)</text>
</g>
<!-- N7&#45;&gt;N4 -->
<g id="edge1" class="edge">
<title>N7&#45;&gt;N4</title>
<path fill="none" stroke="black" d="M635.82,-114C880.95,-129.03 1216.15,-149.58 1382.2,-159.76"/>
<polygon fill="black" stroke="black" points="1381.67,-163.23 1391.86,-160.35 1382.09,-156.25 1381.67,-163.23"/>
</g>
<!-- N14 -->
<g id="node9" class="node">
<title>N14</title>
<polygon fill="#434eba" stroke="#434eba" points="458.2,-578.54 458.2,-593.46 389.62,-604 292.63,-604 224.05,-593.46 224.05,-578.54 292.63,-568 389.62,-568 458.2,-578.54"/>
<polygon fill="none" stroke="#434eba" points="462.2,-575.11 462.2,-596.89 389.92,-608 292.33,-608 220.05,-596.89 220.05,-575.11 292.33,-564 389.92,-564 462.2,-575.11"/>
<polygon fill="none" stroke="#434eba" points="466.2,-571.68 466.2,-600.32 390.23,-612 292.02,-612 216.05,-600.32 216.05,-571.68 292.02,-560 390.23,-560 466.2,-571.68"/>
<text text-anchor="middle" x="341.12" y="-580.95" font-family="Times,serif" font-size="14.00" fill="#ffffff">{filtered out} (213.4 MB)</text>
</g>
<!-- N5 -->
<g id="node13" class="node">
<title>N5</title>
<polygon fill="#7a0403" stroke="#7a0403" points="1357.75,-254 1124.25,-254 1124.25,-218 1357.75,-218 1357.75,-254"/>
<text text-anchor="middle" x="1241" y="-230.95" font-family="Times,serif" font-size="14.00" fill="#ffffff">qtquickcontrols2&#45;5.15.16&#45;bin (29.8 GB)</text>
</g>
<!-- N2&#45;&gt;N5 -->
<g id="edge11" class="edge">
<title>N2&#45;&gt;N5</title>
<path fill="none" stroke="black" d="M983.82,-289.41C1030.69,-279.64 1090.41,-267.19 1140.39,-256.77"/>
<polygon fill="black" stroke="black" points="1141,-260.22 1150.07,-254.75 1139.57,-253.36 1141,-260.22"/>
</g>
<!-- N4&#45;&gt;N3 -->
<g id="edge13" class="edge">
<title>N4&#45;&gt;N3</title>
<path fill="none" stroke="black" d="M1500.97,-184.37C1540.12,-232.43 1645.74,-362.06 1691.96,-418.79"/>
<polygon fill="black" stroke="black" points="1689.12,-420.85 1698.15,-426.39 1694.54,-416.42 1689.12,-420.85"/>
</g>
<!-- N5&#45;&gt;N4 -->
<g id="edge12" class="edge">
<title>N5&#45;&gt;N4</title>
<path fill="none" stroke="black" d="M1305.9,-217.52C1337.6,-208.35 1376.09,-197.21 1409.17,-187.64"/>
<polygon fill="black" stroke="black" points="1410.07,-191.03 1418.71,-184.89 1408.13,-184.3 1410.07,-191.03"/>
</g>
<!-- N6&#45;&gt;N5 -->
<g id="edge9" class="edge">
<title>N6&#45;&gt;N5</title>
<path fill="none" stroke="black" d="M1088.33,-236C1096.53,-236 1104.68,-236 1112.7,-236"/>
<polygon fill="black" stroke="black" points="1112.43,-239.5 1122.43,-236 1112.43,-232.5 1112.43,-239.5"/>
</g>
</g>
</svg>
